<?xml version="1.0" encoding="UTF-8" standalone="no"?>
<!DOCTYPE svg PUBLIC "-//W3C//DTD SVG 1.1//EN"
 "http://www.w3.org/Graphics/SVG/1.1/DTD/svg11.dtd">
<!-- Generated by graphviz version 2.40.1 (20161225.0304)
 -->
<!-- Title: dependencies Pages: 1 -->
<svg width="540pt" height="211pt"
 viewBox="0.00 0.00 540.00 211.00" xmlns="http://www.w3.org/2000/svg" xmlns:xlink="http://www.w3.org/1999/xlink">
<g id="graph0" class="graph" transform="scale(1 1) rotate(0) translate(4 207)">
<title>dependencies</title>
<polygon fill="#ffffff" stroke="transparent" points="-4,4 -4,-207 536,-207 536,4 -4,4"/>
<text text-anchor="start" x="245.0091" y="-42.4" font-family="sans-serif" font-weight="bold" font-size="14.00" fill="#000000">Legend</text>
<polygon fill="#ffffb3" stroke="transparent" points="32,-10 32,-30 52,-30 52,-10 32,-10"/>
<text text-anchor="start" x="55.629" y="-15.4" font-family="sans-serif" font-size="14.00" fill="#000000"> &#160;Declarations</text>
<polygon fill="#8dd3c7" stroke="transparent" points="145,-10 145,-30 165,-30 165,-10 145,-10"/>
<text text-anchor="start" x="168.7251" y="-15.4" font-family="sans-serif" font-size="14.00" fill="#000000"> &#160;Module</text>
<polygon fill="#80b1d3" stroke="transparent" points="231,-10 231,-30 251,-30 251,-10 231,-10"/>
<text text-anchor="start" x="254.7812" y="-15.4" font-family="sans-serif" font-size="14.00" fill="#000000"> &#160;Bootstrap</text>
<polygon fill="#fdb462" stroke="transparent" points="328,-10 328,-30 348,-30 348,-10 328,-10"/>
<text text-anchor="start" x="351.6732" y="-15.4" font-family="sans-serif" font-size="14.00" fill="#000000"> &#160;Providers</text>
<polygon fill="#fb8072" stroke="transparent" points="424,-10 424,-30 444,-30 444,-10 424,-10"/>
<text text-anchor="start" x="447.7258" y="-15.4" font-family="sans-serif" font-size="14.00" fill="#000000"> &#160;Exports</text>
<g id="clust1" class="cluster">
<title>cluster_SearchResultsModule</title>
<polygon fill="none" stroke="#000000" stroke-dasharray="1,5" points="8,-70 8,-195 524,-195 524,-70 8,-70"/>
</g>
<g id="clust2" class="cluster">
<title>cluster_SearchResultsModule_declarations</title>
<polygon fill="none" stroke="#000000" points="340,-78 340,-130 516,-130 516,-78 340,-78"/>
</g>
<g id="clust4" class="cluster">
<title>cluster_SearchResultsModule_imports</title>
<polygon fill="none" stroke="#000000" points="16,-78 16,-130 332,-130 332,-78 16,-78"/>
</g>
<!-- SearchResultsComponent -->
<g id="node1" class="node">
<title>SearchResultsComponent</title>
<polygon fill="#ffffb3" stroke="#000000" points="508.1414,-122 347.8586,-122 347.8586,-86 508.1414,-86 508.1414,-122"/>
<text text-anchor="middle" x="428" y="-99.8" font-family="Times,serif" font-size="14.00" fill="#000000">SearchResultsComponent</text>
</g>
<!-- SearchResultsModule -->
<g id="node2" class="node">
<title>SearchResultsModule</title>
<polygon fill="#8dd3c7" stroke="#000000" points="301.3585,-187 298.3585,-191 277.3585,-191 274.3585,-187 162.6415,-187 162.6415,-151 301.3585,-151 301.3585,-187"/>
<text text-anchor="middle" x="232" y="-164.8" font-family="Times,serif" font-size="14.00" fill="#000000">SearchResultsModule</text>
</g>
<!-- SearchResultsComponent&#45;&gt;SearchResultsModule -->
<g id="edge1" class="edge">
<title>SearchResultsComponent&#45;&gt;SearchResultsModule</title>
<path fill="none" stroke="#000000" d="M428,-122.1061C428,-141.3391 428,-169 428,-169 428,-169 311.3781,-169 311.3781,-169"/>
<polygon fill="#000000" stroke="#000000" points="311.3781,-165.5001 301.3781,-169 311.3781,-172.5001 311.3781,-165.5001"/>
</g>
<!-- SearchResultsRoutingModule -->
<g id="node3" class="node">
<title>SearchResultsRoutingModule</title>
<polygon fill="#8dd3c7" stroke="#000000" points="323.9762,-122 320.9762,-126 299.9762,-126 296.9762,-122 140.0238,-122 140.0238,-86 323.9762,-86 323.9762,-122"/>
<text text-anchor="middle" x="232" y="-99.8" font-family="Times,serif" font-size="14.00" fill="#000000">SearchResultsRoutingModule</text>
</g>
<!-- SearchResultsRoutingModule&#45;&gt;SearchResultsModule -->
<g id="edge2" class="edge">
<title>SearchResultsRoutingModule&#45;&gt;SearchResultsModule</title>
<path fill="none" stroke="#000000" d="M232,-122.1061C232,-122.1061 232,-140.991 232,-140.991"/>
<polygon fill="#000000" stroke="#000000" points="228.5001,-140.9909 232,-150.991 235.5001,-140.991 228.5001,-140.9909"/>
</g>
<!-- SharedModule -->
<g id="node4" class="node">
<title>SharedModule</title>
<polygon fill="#8dd3c7" stroke="#000000" points="122.4231,-122 119.4231,-126 98.4231,-126 95.4231,-122 23.5769,-122 23.5769,-86 122.4231,-86 122.4231,-122"/>
<text text-anchor="middle" x="73" y="-99.8" font-family="Times,serif" font-size="14.00" fill="#000000">SharedModule</text>
</g>
<!-- SharedModule&#45;&gt;SearchResultsModule -->
<g id="edge3" class="edge">
<title>SharedModule&#45;&gt;SearchResultsModule</title>
<path fill="none" stroke="#000000" d="M73,-122.1061C73,-141.3391 73,-169 73,-169 73,-169 152.2603,-169 152.2603,-169"/>
<polygon fill="#000000" stroke="#000000" points="152.2603,-172.5001 162.2603,-169 152.2602,-165.5001 152.2603,-172.5001"/>
</g>
</g>
</svg>
