<?xml version="1.0" encoding="UTF-8" standalone="no"?>
<!DOCTYPE svg PUBLIC "-//W3C//DTD SVG 1.1//EN"
 "http://www.w3.org/Graphics/SVG/1.1/DTD/svg11.dtd">
<!-- Generated by graphviz version 2.40.1 (20161225.0304)
 -->
<!-- Title: dependencies Pages: 1 -->
<svg width="993pt" height="211pt"
 viewBox="0.00 0.00 993.00 211.00" xmlns="http://www.w3.org/2000/svg" xmlns:xlink="http://www.w3.org/1999/xlink">
<g id="graph0" class="graph" transform="scale(1 1) rotate(0) translate(4 207)">
<title>dependencies</title>
<polygon fill="#ffffff" stroke="transparent" points="-4,4 -4,-207 989,-207 989,4 -4,4"/>
<text text-anchor="start" x="471.5091" y="-42.4" font-family="sans-serif" font-weight="bold" font-size="14.00" fill="#000000">Legend</text>
<polygon fill="#ffffb3" stroke="transparent" points="258.5,-10 258.5,-30 278.5,-30 278.5,-10 258.5,-10"/>
<text text-anchor="start" x="282.129" y="-15.4" font-family="sans-serif" font-size="14.00" fill="#000000"> &#160;Declarations</text>
<polygon fill="#8dd3c7" stroke="transparent" points="371.5,-10 371.5,-30 391.5,-30 391.5,-10 371.5,-10"/>
<text text-anchor="start" x="395.2251" y="-15.4" font-family="sans-serif" font-size="14.00" fill="#000000"> &#160;Module</text>
<polygon fill="#80b1d3" stroke="transparent" points="457.5,-10 457.5,-30 477.5,-30 477.5,-10 457.5,-10"/>
<text text-anchor="start" x="481.2812" y="-15.4" font-family="sans-serif" font-size="14.00" fill="#000000"> &#160;Bootstrap</text>
<polygon fill="#fdb462" stroke="transparent" points="554.5,-10 554.5,-30 574.5,-30 574.5,-10 554.5,-10"/>
<text text-anchor="start" x="578.1732" y="-15.4" font-family="sans-serif" font-size="14.00" fill="#000000"> &#160;Providers</text>
<polygon fill="#fb8072" stroke="transparent" points="650.5,-10 650.5,-30 670.5,-30 670.5,-10 650.5,-10"/>
<text text-anchor="start" x="674.2258" y="-15.4" font-family="sans-serif" font-size="14.00" fill="#000000"> &#160;Exports</text>
<g id="clust1" class="cluster">
<title>cluster_DashboardModule</title>
<polygon fill="none" stroke="#000000" stroke-dasharray="1,5" points="8,-70 8,-195 977,-195 977,-70 8,-70"/>
</g>
<g id="clust2" class="cluster">
<title>cluster_DashboardModule_declarations</title>
<polygon fill="none" stroke="#000000" points="585,-78 585,-130 969,-130 969,-78 585,-78"/>
</g>
<g id="clust5" class="cluster">
<title>cluster_DashboardModule_imports</title>
<polygon fill="none" stroke="#000000" points="16,-78 16,-130 577,-130 577,-78 16,-78"/>
</g>
<!-- BuyerDashboardComponent -->
<g id="node1" class="node">
<title>BuyerDashboardComponent</title>
<polygon fill="#ffffb3" stroke="#000000" points="961.1853,-122 784.8147,-122 784.8147,-86 961.1853,-86 961.1853,-122"/>
<text text-anchor="middle" x="873" y="-99.8" font-family="Times,serif" font-size="14.00" fill="#000000">BuyerDashboardComponent</text>
</g>
<!-- DashboardModule -->
<g id="node3" class="node">
<title>DashboardModule</title>
<polygon fill="#8dd3c7" stroke="#000000" points="460.191,-187 457.191,-191 436.191,-191 433.191,-187 339.809,-187 339.809,-151 460.191,-151 460.191,-187"/>
<text text-anchor="middle" x="400" y="-164.8" font-family="Times,serif" font-size="14.00" fill="#000000">DashboardModule</text>
</g>
<!-- BuyerDashboardComponent&#45;&gt;DashboardModule -->
<g id="edge1" class="edge">
<title>BuyerDashboardComponent&#45;&gt;DashboardModule</title>
<path fill="none" stroke="#000000" d="M873,-122.2843C873,-143.3211 873,-175 873,-175 873,-175 470.3862,-175 470.3862,-175"/>
<polygon fill="#000000" stroke="#000000" points="470.3863,-171.5001 460.3862,-175 470.3862,-178.5001 470.3863,-171.5001"/>
</g>
<!-- SellerDashboardComponent -->
<g id="node2" class="node">
<title>SellerDashboardComponent</title>
<polygon fill="#ffffb3" stroke="#000000" points="767.1274,-122 592.8726,-122 592.8726,-86 767.1274,-86 767.1274,-122"/>
<text text-anchor="middle" x="680" y="-99.8" font-family="Times,serif" font-size="14.00" fill="#000000">SellerDashboardComponent</text>
</g>
<!-- SellerDashboardComponent&#45;&gt;DashboardModule -->
<g id="edge2" class="edge">
<title>SellerDashboardComponent&#45;&gt;DashboardModule</title>
<path fill="none" stroke="#000000" d="M680,-122.0225C680,-139.3734 680,-163 680,-163 680,-163 470.4111,-163 470.4111,-163"/>
<polygon fill="#000000" stroke="#000000" points="470.4111,-159.5001 460.4111,-163 470.4111,-166.5001 470.4111,-159.5001"/>
</g>
<!-- DashboardRoutingModule -->
<g id="node4" class="node">
<title>DashboardRoutingModule</title>
<polygon fill="#8dd3c7" stroke="#000000" points="568.8089,-122 565.8089,-126 544.8089,-126 541.8089,-122 403.1911,-122 403.1911,-86 568.8089,-86 568.8089,-122"/>
<text text-anchor="middle" x="486" y="-99.8" font-family="Times,serif" font-size="14.00" fill="#000000">DashboardRoutingModule</text>
</g>
<!-- DashboardRoutingModule&#45;&gt;DashboardModule -->
<g id="edge3" class="edge">
<title>DashboardRoutingModule&#45;&gt;DashboardModule</title>
<path fill="none" stroke="#000000" d="M431.7206,-122.1061C431.7206,-122.1061 431.7206,-140.991 431.7206,-140.991"/>
<polygon fill="#000000" stroke="#000000" points="428.2206,-140.9909 431.7206,-150.991 435.2206,-140.991 428.2206,-140.9909"/>
</g>
<!-- DynamicFormModule -->
<g id="node5" class="node">
<title>DynamicFormModule</title>
<polygon fill="#8dd3c7" stroke="#000000" points="385.7007,-122 382.7007,-126 361.7007,-126 358.7007,-122 244.2993,-122 244.2993,-86 385.7007,-86 385.7007,-122"/>
<text text-anchor="middle" x="315" y="-99.8" font-family="Times,serif" font-size="14.00" fill="#000000">DynamicFormModule</text>
</g>
<!-- DynamicFormModule&#45;&gt;DashboardModule -->
<g id="edge4" class="edge">
<title>DynamicFormModule&#45;&gt;DashboardModule</title>
<path fill="none" stroke="#000000" d="M362.7525,-122.1061C362.7525,-122.1061 362.7525,-140.991 362.7525,-140.991"/>
<polygon fill="#000000" stroke="#000000" points="359.2525,-140.9909 362.7525,-150.991 366.2525,-140.991 359.2525,-140.9909"/>
</g>
<!-- SharedModule -->
<g id="node6" class="node">
<title>SharedModule</title>
<polygon fill="#8dd3c7" stroke="#000000" points="226.4231,-122 223.4231,-126 202.4231,-126 199.4231,-122 127.5769,-122 127.5769,-86 226.4231,-86 226.4231,-122"/>
<text text-anchor="middle" x="177" y="-99.8" font-family="Times,serif" font-size="14.00" fill="#000000">SharedModule</text>
</g>
<!-- SharedModule&#45;&gt;DashboardModule -->
<g id="edge5" class="edge">
<title>SharedModule&#45;&gt;DashboardModule</title>
<path fill="none" stroke="#000000" d="M177,-122.0225C177,-139.3734 177,-163 177,-163 177,-163 329.653,-163 329.653,-163"/>
<polygon fill="#000000" stroke="#000000" points="329.653,-166.5001 339.653,-163 329.653,-159.5001 329.653,-166.5001"/>
</g>
<!-- UserModule -->
<g id="node7" class="node">
<title>UserModule</title>
<polygon fill="#8dd3c7" stroke="#000000" points="109.9762,-122 106.9762,-126 85.9762,-126 82.9762,-122 24.0238,-122 24.0238,-86 109.9762,-86 109.9762,-122"/>
<text text-anchor="middle" x="67" y="-99.8" font-family="Times,serif" font-size="14.00" fill="#000000">UserModule</text>
</g>
<!-- UserModule&#45;&gt;DashboardModule -->
<g id="edge6" class="edge">
<title>UserModule&#45;&gt;DashboardModule</title>
<path fill="none" stroke="#000000" d="M67,-122.2843C67,-143.3211 67,-175 67,-175 67,-175 329.6962,-175 329.6962,-175"/>
<polygon fill="#000000" stroke="#000000" points="329.6962,-178.5001 339.6962,-175 329.6962,-171.5001 329.6962,-178.5001"/>
</g>
</g>
</svg>
