<?xml version="1.0" encoding="UTF-8" standalone="no"?>
<!DOCTYPE svg PUBLIC "-//W3C//DTD SVG 1.1//EN"
 "http://www.w3.org/Graphics/SVG/1.1/DTD/svg11.dtd">
<!-- Generated by graphviz version 2.40.1 (20161225.0304)
 -->
<!-- Title: dependencies Pages: 1 -->
<svg width="712pt" height="211pt"
 viewBox="0.00 0.00 712.00 211.00" xmlns="http://www.w3.org/2000/svg" xmlns:xlink="http://www.w3.org/1999/xlink">
<g id="graph0" class="graph" transform="scale(1 1) rotate(0) translate(4 207)">
<title>dependencies</title>
<polygon fill="#ffffff" stroke="transparent" points="-4,4 -4,-207 708,-207 708,4 -4,4"/>
<text text-anchor="start" x="331.0091" y="-42.4" font-family="sans-serif" font-weight="bold" font-size="14.00" fill="#000000">Legend</text>
<polygon fill="#ffffb3" stroke="transparent" points="118,-10 118,-30 138,-30 138,-10 118,-10"/>
<text text-anchor="start" x="141.629" y="-15.4" font-family="sans-serif" font-size="14.00" fill="#000000"> &#160;Declarations</text>
<polygon fill="#8dd3c7" stroke="transparent" points="231,-10 231,-30 251,-30 251,-10 231,-10"/>
<text text-anchor="start" x="254.7251" y="-15.4" font-family="sans-serif" font-size="14.00" fill="#000000"> &#160;Module</text>
<polygon fill="#80b1d3" stroke="transparent" points="317,-10 317,-30 337,-30 337,-10 317,-10"/>
<text text-anchor="start" x="340.7812" y="-15.4" font-family="sans-serif" font-size="14.00" fill="#000000"> &#160;Bootstrap</text>
<polygon fill="#fdb462" stroke="transparent" points="414,-10 414,-30 434,-30 434,-10 414,-10"/>
<text text-anchor="start" x="437.6732" y="-15.4" font-family="sans-serif" font-size="14.00" fill="#000000"> &#160;Providers</text>
<polygon fill="#fb8072" stroke="transparent" points="510,-10 510,-30 530,-30 530,-10 510,-10"/>
<text text-anchor="start" x="533.7258" y="-15.4" font-family="sans-serif" font-size="14.00" fill="#000000"> &#160;Exports</text>
<g id="clust1" class="cluster">
<title>cluster_LoginModule</title>
<polygon fill="none" stroke="#000000" stroke-dasharray="1,5" points="8,-70 8,-195 696,-195 696,-70 8,-70"/>
</g>
<g id="clust2" class="cluster">
<title>cluster_LoginModule_declarations</title>
<polygon fill="none" stroke="#000000" points="558,-78 558,-130 688,-130 688,-78 558,-78"/>
</g>
<g id="clust4" class="cluster">
<title>cluster_LoginModule_imports</title>
<polygon fill="none" stroke="#000000" points="16,-78 16,-130 550,-130 550,-78 16,-78"/>
</g>
<!-- LoginComponent -->
<g id="node1" class="node">
<title>LoginComponent</title>
<polygon fill="#ffffb3" stroke="#000000" points="680.2758,-122 565.7242,-122 565.7242,-86 680.2758,-86 680.2758,-122"/>
<text text-anchor="middle" x="623" y="-99.8" font-family="Times,serif" font-size="14.00" fill="#000000">LoginComponent</text>
</g>
<!-- LoginModule -->
<g id="node2" class="node">
<title>LoginModule</title>
<polygon fill="#8dd3c7" stroke="#000000" points="359.493,-187 356.493,-191 335.493,-191 332.493,-187 266.507,-187 266.507,-151 359.493,-151 359.493,-187"/>
<text text-anchor="middle" x="313" y="-164.8" font-family="Times,serif" font-size="14.00" fill="#000000">LoginModule</text>
</g>
<!-- LoginComponent&#45;&gt;LoginModule -->
<g id="edge1" class="edge">
<title>LoginComponent&#45;&gt;LoginModule</title>
<path fill="none" stroke="#000000" d="M623,-122.2843C623,-143.3211 623,-175 623,-175 623,-175 369.7458,-175 369.7458,-175"/>
<polygon fill="#000000" stroke="#000000" points="369.7458,-171.5001 359.7458,-175 369.7457,-178.5001 369.7458,-171.5001"/>
</g>
<!-- DynamicFormModule -->
<g id="node3" class="node">
<title>DynamicFormModule</title>
<polygon fill="#8dd3c7" stroke="#000000" points="541.7007,-122 538.7007,-126 517.7007,-126 514.7007,-122 400.2993,-122 400.2993,-86 541.7007,-86 541.7007,-122"/>
<text text-anchor="middle" x="471" y="-99.8" font-family="Times,serif" font-size="14.00" fill="#000000">DynamicFormModule</text>
</g>
<!-- DynamicFormModule&#45;&gt;LoginModule -->
<g id="edge2" class="edge">
<title>DynamicFormModule&#45;&gt;LoginModule</title>
<path fill="none" stroke="#000000" d="M471,-122.0225C471,-139.3734 471,-163 471,-163 471,-163 369.5506,-163 369.5506,-163"/>
<polygon fill="#000000" stroke="#000000" points="369.5507,-159.5001 359.5506,-163 369.5506,-166.5001 369.5507,-159.5001"/>
</g>
<!-- LoginRoutingModule -->
<g id="node4" class="node">
<title>LoginRoutingModule</title>
<polygon fill="#8dd3c7" stroke="#000000" points="382.1108,-122 379.1108,-126 358.1108,-126 355.1108,-122 243.8892,-122 243.8892,-86 382.1108,-86 382.1108,-122"/>
<text text-anchor="middle" x="313" y="-99.8" font-family="Times,serif" font-size="14.00" fill="#000000">LoginRoutingModule</text>
</g>
<!-- LoginRoutingModule&#45;&gt;LoginModule -->
<g id="edge3" class="edge">
<title>LoginRoutingModule&#45;&gt;LoginModule</title>
<path fill="none" stroke="#000000" d="M313,-122.1061C313,-122.1061 313,-140.991 313,-140.991"/>
<polygon fill="#000000" stroke="#000000" points="309.5001,-140.9909 313,-150.991 316.5001,-140.991 309.5001,-140.9909"/>
</g>
<!-- SharedModule -->
<g id="node5" class="node">
<title>SharedModule</title>
<polygon fill="#8dd3c7" stroke="#000000" points="226.4231,-122 223.4231,-126 202.4231,-126 199.4231,-122 127.5769,-122 127.5769,-86 226.4231,-86 226.4231,-122"/>
<text text-anchor="middle" x="177" y="-99.8" font-family="Times,serif" font-size="14.00" fill="#000000">SharedModule</text>
</g>
<!-- SharedModule&#45;&gt;LoginModule -->
<g id="edge4" class="edge">
<title>SharedModule&#45;&gt;LoginModule</title>
<path fill="none" stroke="#000000" d="M177,-122.0225C177,-139.3734 177,-163 177,-163 177,-163 256.1965,-163 256.1965,-163"/>
<polygon fill="#000000" stroke="#000000" points="256.1966,-166.5001 266.1965,-163 256.1965,-159.5001 256.1966,-166.5001"/>
</g>
<!-- UserModule -->
<g id="node6" class="node">
<title>UserModule</title>
<polygon fill="#8dd3c7" stroke="#000000" points="109.9762,-122 106.9762,-126 85.9762,-126 82.9762,-122 24.0238,-122 24.0238,-86 109.9762,-86 109.9762,-122"/>
<text text-anchor="middle" x="67" y="-99.8" font-family="Times,serif" font-size="14.00" fill="#000000">UserModule</text>
</g>
<!-- UserModule&#45;&gt;LoginModule -->
<g id="edge5" class="edge">
<title>UserModule&#45;&gt;LoginModule</title>
<path fill="none" stroke="#000000" d="M67,-122.2843C67,-143.3211 67,-175 67,-175 67,-175 256.4401,-175 256.4401,-175"/>
<polygon fill="#000000" stroke="#000000" points="256.4401,-178.5001 266.4401,-175 256.44,-171.5001 256.4401,-178.5001"/>
</g>
</g>
</svg>
