<?xml version="1.0" encoding="UTF-8" standalone="no"?>
<!DOCTYPE svg PUBLIC "-//W3C//DTD SVG 1.1//EN"
 "http://www.w3.org/Graphics/SVG/1.1/DTD/svg11.dtd">
<!-- Generated by graphviz version 2.40.1 (20161225.0304)
 -->
<!-- Title: dependencies Pages: 1 -->
<svg width="3990pt" height="360pt"
 viewBox="0.00 0.00 3990.00 360.00" xmlns="http://www.w3.org/2000/svg" xmlns:xlink="http://www.w3.org/1999/xlink">
<g id="graph0" class="graph" transform="scale(1 1) rotate(0) translate(4 356)">
<title>dependencies</title>
<polygon fill="#ffffff" stroke="transparent" points="-4,4 -4,-356 3986,-356 3986,4 -4,4"/>
<text text-anchor="start" x="1970.0091" y="-42.4" font-family="sans-serif" font-weight="bold" font-size="14.00" fill="#000000">Legend</text>
<polygon fill="#ffffb3" stroke="transparent" points="1757,-10 1757,-30 1777,-30 1777,-10 1757,-10"/>
<text text-anchor="start" x="1780.629" y="-15.4" font-family="sans-serif" font-size="14.00" fill="#000000"> &#160;Declarations</text>
<polygon fill="#8dd3c7" stroke="transparent" points="1870,-10 1870,-30 1890,-30 1890,-10 1870,-10"/>
<text text-anchor="start" x="1893.7251" y="-15.4" font-family="sans-serif" font-size="14.00" fill="#000000"> &#160;Module</text>
<polygon fill="#80b1d3" stroke="transparent" points="1956,-10 1956,-30 1976,-30 1976,-10 1956,-10"/>
<text text-anchor="start" x="1979.7812" y="-15.4" font-family="sans-serif" font-size="14.00" fill="#000000"> &#160;Bootstrap</text>
<polygon fill="#fdb462" stroke="transparent" points="2053,-10 2053,-30 2073,-30 2073,-10 2053,-10"/>
<text text-anchor="start" x="2076.6732" y="-15.4" font-family="sans-serif" font-size="14.00" fill="#000000"> &#160;Providers</text>
<polygon fill="#fb8072" stroke="transparent" points="2149,-10 2149,-30 2169,-30 2169,-10 2149,-10"/>
<text text-anchor="start" x="2172.7258" y="-15.4" font-family="sans-serif" font-size="14.00" fill="#000000"> &#160;Exports</text>
<g id="clust1" class="cluster">
<title>cluster_AppModule</title>
<polygon fill="none" stroke="#000000" stroke-dasharray="1,5" points="2675,-146 2675,-344 3180,-344 3180,-146 2675,-146"/>
</g>
<g id="clust2" class="cluster">
<title>cluster_AppModule_declarations</title>
<polygon fill="none" stroke="#000000" points="3050,-154 3050,-206 3172,-206 3172,-154 3050,-154"/>
</g>
<g id="clust4" class="cluster">
<title>cluster_AppModule_imports</title>
<polygon fill="none" stroke="#000000" points="2683,-154 2683,-206 3042,-206 3042,-154 2683,-154"/>
</g>
<g id="clust6" class="cluster">
<title>cluster_AppModule_bootstrap</title>
<polygon fill="none" stroke="#000000" points="2845,-284 2845,-336 2969,-336 2969,-284 2845,-284"/>
</g>
<g id="clust14" class="cluster">
<title>cluster_CoreModule</title>
<polygon fill="none" stroke="#000000" stroke-dasharray="1,5" points="2230,-70 2230,-138 2919,-138 2919,-70 2230,-70"/>
</g>
<g id="clust15" class="cluster">
<title>cluster_CoreModule_declarations</title>
<polygon fill="none" stroke="#000000" points="2637,-78 2637,-130 2911,-130 2911,-78 2637,-78"/>
</g>
<g id="clust18" class="cluster">
<title>cluster_CoreModule_imports</title>
<polygon fill="none" stroke="#000000" points="2238,-78 2238,-130 2340,-130 2340,-78 2238,-78"/>
</g>
<g id="clust19" class="cluster">
<title>cluster_CoreModule_exports</title>
<polygon fill="none" stroke="#000000" points="2348,-78 2348,-130 2629,-130 2629,-78 2348,-78"/>
</g>
<g id="clust22" class="cluster">
<title>cluster_DashboardModule</title>
<polygon fill="none" stroke="#000000" stroke-dasharray="1,5" points="1084,-70 1084,-271 1833,-271 1833,-70 1084,-70"/>
</g>
<g id="clust23" class="cluster">
<title>cluster_DashboardModule_declarations</title>
<polygon fill="none" stroke="#000000" points="1441,-154 1441,-206 1825,-206 1825,-154 1441,-154"/>
</g>
<g id="clust26" class="cluster">
<title>cluster_DashboardModule_imports</title>
<polygon fill="none" stroke="#000000" points="1092,-78 1092,-206 1433,-206 1433,-78 1092,-78"/>
</g>
<g id="clust36" class="cluster">
<title>cluster_DynamicFormModule</title>
<polygon fill="none" stroke="#000000" stroke-dasharray="1,5" points="664,-146 664,-214 1048,-214 1048,-146 664,-146"/>
</g>
<g id="clust37" class="cluster">
<title>cluster_DynamicFormModule_declarations</title>
<polygon fill="none" stroke="#000000" points="862,-154 862,-206 1040,-206 1040,-154 862,-154"/>
</g>
<g id="clust40" class="cluster">
<title>cluster_DynamicFormModule_exports</title>
<polygon fill="none" stroke="#000000" points="672,-154 672,-206 854,-206 854,-154 672,-154"/>
</g>
<g id="clust43" class="cluster">
<title>cluster_HomeModule</title>
<polygon fill="none" stroke="#000000" stroke-dasharray="1,5" points="8,-146 8,-271 318,-271 318,-146 8,-146"/>
</g>
<g id="clust44" class="cluster">
<title>cluster_HomeModule_declarations</title>
<polygon fill="none" stroke="#000000" points="178,-154 178,-206 310,-206 310,-154 178,-154"/>
</g>
<g id="clust46" class="cluster">
<title>cluster_HomeModule_imports</title>
<polygon fill="none" stroke="#000000" points="16,-154 16,-206 170,-206 170,-154 16,-154"/>
</g>
<g id="clust56" class="cluster">
<title>cluster_LoginModule</title>
<polygon fill="none" stroke="#000000" stroke-dasharray="1,5" points="326,-146 326,-271 634,-271 634,-146 326,-146"/>
</g>
<g id="clust57" class="cluster">
<title>cluster_LoginModule_declarations</title>
<polygon fill="none" stroke="#000000" points="496,-154 496,-206 626,-206 626,-154 496,-154"/>
</g>
<g id="clust59" class="cluster">
<title>cluster_LoginModule_imports</title>
<polygon fill="none" stroke="#000000" points="334,-154 334,-206 488,-206 488,-154 334,-154"/>
</g>
<g id="clust69" class="cluster">
<title>cluster_OrderFailedModule</title>
<polygon fill="none" stroke="#000000" stroke-dasharray="1,5" points="3188,-70 3188,-206 3392,-206 3392,-70 3188,-70"/>
</g>
<g id="clust71" class="cluster">
<title>cluster_OrderFailedModule_imports</title>
<polygon fill="none" stroke="#000000" points="3196,-78 3196,-130 3384,-130 3384,-78 3196,-78"/>
</g>
<g id="clust81" class="cluster">
<title>cluster_OrderModule</title>
<polygon fill="none" stroke="#000000" stroke-dasharray="1,5" points="3400,-70 3400,-206 3570,-206 3570,-70 3400,-70"/>
</g>
<g id="clust83" class="cluster">
<title>cluster_OrderModule_imports</title>
<polygon fill="none" stroke="#000000" points="3408,-78 3408,-130 3562,-130 3562,-78 3408,-78"/>
</g>
<g id="clust93" class="cluster">
<title>cluster_OrderSuccessModule</title>
<polygon fill="none" stroke="#000000" stroke-dasharray="1,5" points="3578,-70 3578,-206 3792,-206 3792,-70 3578,-70"/>
</g>
<g id="clust95" class="cluster">
<title>cluster_OrderSuccessModule_imports</title>
<polygon fill="none" stroke="#000000" points="3586,-78 3586,-130 3784,-130 3784,-78 3586,-78"/>
</g>
<g id="clust105" class="cluster">
<title>cluster_PrinterModule</title>
<polygon fill="none" stroke="#000000" stroke-dasharray="1,5" points="3800,-70 3800,-206 3974,-206 3974,-70 3800,-70"/>
</g>
<g id="clust107" class="cluster">
<title>cluster_PrinterModule_imports</title>
<polygon fill="none" stroke="#000000" points="3808,-78 3808,-130 3966,-130 3966,-78 3808,-78"/>
</g>
<g id="clust117" class="cluster">
<title>cluster_RegisterModule</title>
<polygon fill="none" stroke="#000000" stroke-dasharray="1,5" points="1863,-146 1863,-271 2199,-271 2199,-146 1863,-146"/>
</g>
<g id="clust118" class="cluster">
<title>cluster_RegisterModule_declarations</title>
<polygon fill="none" stroke="#000000" points="2047,-154 2047,-206 2191,-206 2191,-154 2047,-154"/>
</g>
<g id="clust120" class="cluster">
<title>cluster_RegisterModule_imports</title>
<polygon fill="none" stroke="#000000" points="1871,-154 1871,-206 2039,-206 2039,-154 1871,-154"/>
</g>
<g id="clust130" class="cluster">
<title>cluster_SearchResultsModule</title>
<polygon fill="none" stroke="#000000" stroke-dasharray="1,5" points="2267,-146 2267,-271 2667,-271 2667,-146 2267,-146"/>
</g>
<g id="clust131" class="cluster">
<title>cluster_SearchResultsModule_declarations</title>
<polygon fill="none" stroke="#000000" points="2483,-154 2483,-206 2659,-206 2659,-154 2483,-154"/>
</g>
<g id="clust133" class="cluster">
<title>cluster_SearchResultsModule_imports</title>
<polygon fill="none" stroke="#000000" points="2275,-154 2275,-206 2475,-206 2475,-154 2275,-154"/>
</g>
<!-- AppComponent -->
<g id="node1" class="node">
<title>AppComponent</title>
<polygon fill="#ffffb3" stroke="#000000" points="3163.9399,-198 3058.0601,-198 3058.0601,-162 3163.9399,-162 3163.9399,-198"/>
<text text-anchor="middle" x="3111" y="-175.8" font-family="Times,serif" font-size="14.00" fill="#000000">AppComponent</text>
</g>
<!-- AppModule -->
<g id="node2" class="node">
<title>AppModule</title>
<polygon fill="#8dd3c7" stroke="#000000" points="2948.6571,-263 2945.6571,-267 2924.6571,-267 2921.6571,-263 2865.3429,-263 2865.3429,-227 2948.6571,-227 2948.6571,-263"/>
<text text-anchor="middle" x="2907" y="-240.8" font-family="Times,serif" font-size="14.00" fill="#000000">AppModule</text>
</g>
<!-- AppComponent&#45;&gt;AppModule -->
<g id="edge1" class="edge">
<title>AppComponent&#45;&gt;AppModule</title>
<path fill="none" stroke="#000000" d="M3111,-198.1061C3111,-217.3391 3111,-245 3111,-245 3111,-245 2958.7747,-245 2958.7747,-245"/>
<polygon fill="#000000" stroke="#000000" points="2958.7747,-241.5001 2948.7747,-245 2958.7747,-248.5001 2958.7747,-241.5001"/>
</g>
<!-- AppComponent  -->
<g id="node6" class="node">
<title>AppComponent </title>
<polygon fill="#80b1d3" stroke="#000000" points="2961.439,-328 2852.561,-328 2852.561,-292 2961.439,-292 2961.439,-328"/>
<text text-anchor="middle" x="2907" y="-305.8" font-family="Times,serif" font-size="14.00" fill="#000000">AppComponent </text>
</g>
<!-- AppModule&#45;&gt;AppComponent  -->
<g id="edge5" class="edge">
<title>AppModule&#45;&gt;AppComponent </title>
<path fill="none" stroke="#000000" stroke-dasharray="1,5" d="M2907,-263.1061C2907,-263.1061 2907,-281.991 2907,-281.991"/>
<polygon fill="#000000" stroke="#000000" points="2903.5001,-281.9909 2907,-291.991 2910.5001,-281.991 2903.5001,-281.9909"/>
</g>
<!-- !environment -->
<g id="node3" class="node">
<title>!environment</title>
<polygon fill="#8dd3c7" stroke="#000000" points="2782.9232,-198 2779.9232,-202 2758.9232,-202 2755.9232,-198 2691.0768,-198 2691.0768,-162 2782.9232,-162 2782.9232,-198"/>
<text text-anchor="middle" x="2737" y="-175.8" font-family="Times,serif" font-size="14.00" fill="#000000">!environment</text>
</g>
<!-- !environment&#45;&gt;AppModule -->
<g id="edge2" class="edge">
<title>!environment&#45;&gt;AppModule</title>
<path fill="none" stroke="#000000" d="M2737,-198.2843C2737,-219.3211 2737,-251 2737,-251 2737,-251 2854.9775,-251 2854.9775,-251"/>
<polygon fill="#000000" stroke="#000000" points="2854.9776,-254.5001 2864.9775,-251 2854.9775,-247.5001 2854.9776,-254.5001"/>
</g>
<!-- AppRoutingModule -->
<g id="node4" class="node">
<title>AppRoutingModule</title>
<polygon fill="#8dd3c7" stroke="#000000" points="3034.2744,-198 3031.2744,-202 3010.2744,-202 3007.2744,-198 2905.7256,-198 2905.7256,-162 3034.2744,-162 3034.2744,-198"/>
<text text-anchor="middle" x="2970" y="-175.8" font-family="Times,serif" font-size="14.00" fill="#000000">AppRoutingModule</text>
</g>
<!-- AppRoutingModule&#45;&gt;AppModule -->
<g id="edge3" class="edge">
<title>AppRoutingModule&#45;&gt;AppModule</title>
<path fill="none" stroke="#000000" d="M2927.2206,-198.1061C2927.2206,-198.1061 2927.2206,-216.991 2927.2206,-216.991"/>
<polygon fill="#000000" stroke="#000000" points="2923.7206,-216.9909 2927.2206,-226.991 2930.7206,-216.991 2923.7206,-216.9909"/>
</g>
<!-- CoreModule -->
<g id="node5" class="node">
<title>CoreModule</title>
<polygon fill="#8dd3c7" stroke="#000000" points="2887.2619,-198 2884.2619,-202 2863.2619,-202 2860.2619,-198 2800.7381,-198 2800.7381,-162 2887.2619,-162 2887.2619,-198"/>
<text text-anchor="middle" x="2844" y="-175.8" font-family="Times,serif" font-size="14.00" fill="#000000">CoreModule</text>
</g>
<!-- CoreModule&#45;&gt;AppModule -->
<g id="edge4" class="edge">
<title>CoreModule&#45;&gt;AppModule</title>
<path fill="none" stroke="#000000" d="M2876.2763,-198.1061C2876.2763,-198.1061 2876.2763,-216.991 2876.2763,-216.991"/>
<polygon fill="#000000" stroke="#000000" points="2872.7764,-216.9909 2876.2763,-226.991 2879.7764,-216.991 2872.7764,-216.9909"/>
</g>
<!-- FooterComponent  -->
<g id="node10" class="node">
<title>FooterComponent </title>
<polygon fill="#fb8072" stroke="#000000" points="2620.8814,-122 2499.1186,-122 2499.1186,-86 2620.8814,-86 2620.8814,-122"/>
<text text-anchor="middle" x="2560" y="-99.8" font-family="Times,serif" font-size="14.00" fill="#000000">FooterComponent </text>
</g>
<!-- CoreModule&#45;&gt;FooterComponent  -->
<g id="edge9" class="edge">
<title>CoreModule&#45;&gt;FooterComponent </title>
<path fill="none" stroke="#000000" stroke-dasharray="5,2" d="M2844,-161.8903C2844,-152.103 2844,-142 2844,-142 2844,-142 2560,-142 2560,-142 2560,-142 2560,-132.1097 2560,-132.1097"/>
<polygon fill="#000000" stroke="#000000" points="2563.5001,-132.1096 2560,-122.1097 2556.5001,-132.1097 2563.5001,-132.1096"/>
</g>
<!-- HeaderComponent  -->
<g id="node11" class="node">
<title>HeaderComponent </title>
<polygon fill="#fb8072" stroke="#000000" points="2481.7436,-122 2356.2564,-122 2356.2564,-86 2481.7436,-86 2481.7436,-122"/>
<text text-anchor="middle" x="2419" y="-99.8" font-family="Times,serif" font-size="14.00" fill="#000000">HeaderComponent </text>
</g>
<!-- CoreModule&#45;&gt;HeaderComponent  -->
<g id="edge10" class="edge">
<title>CoreModule&#45;&gt;HeaderComponent </title>
<path fill="none" stroke="#000000" stroke-dasharray="5,2" d="M2829.5397,-161.9672C2829.5397,-155.1474 2829.5397,-149 2829.5397,-149 2829.5397,-149 2474.3049,-149 2474.3049,-149 2474.3049,-149 2474.3049,-132.0439 2474.3049,-132.0439"/>
<polygon fill="#000000" stroke="#000000" points="2477.805,-132.0439 2474.3049,-122.0439 2470.805,-132.044 2477.805,-132.0439"/>
</g>
<!-- FooterComponent -->
<g id="node7" class="node">
<title>FooterComponent</title>
<polygon fill="#ffffb3" stroke="#000000" points="2902.8809,-122 2785.1191,-122 2785.1191,-86 2902.8809,-86 2902.8809,-122"/>
<text text-anchor="middle" x="2844" y="-99.8" font-family="Times,serif" font-size="14.00" fill="#000000">FooterComponent</text>
</g>
<!-- FooterComponent&#45;&gt;CoreModule -->
<g id="edge6" class="edge">
<title>FooterComponent&#45;&gt;CoreModule</title>
<path fill="none" stroke="#000000" d="M2872.9205,-122.0109C2872.9205,-122.0109 2872.9205,-151.855 2872.9205,-151.855"/>
<polygon fill="#000000" stroke="#000000" points="2869.4206,-151.8549 2872.9205,-161.855 2876.4206,-151.855 2869.4206,-151.8549"/>
</g>
<!-- HeaderComponent -->
<g id="node8" class="node">
<title>HeaderComponent</title>
<polygon fill="#ffffb3" stroke="#000000" points="2766.7437,-122 2645.2563,-122 2645.2563,-86 2766.7437,-86 2766.7437,-122"/>
<text text-anchor="middle" x="2706" y="-99.8" font-family="Times,serif" font-size="14.00" fill="#000000">HeaderComponent</text>
</g>
<!-- HeaderComponent&#45;&gt;CoreModule -->
<g id="edge7" class="edge">
<title>HeaderComponent&#45;&gt;CoreModule</title>
<path fill="none" stroke="#000000" d="M2729.0803,-122.2434C2729.0803,-129.4297 2729.0803,-136 2729.0803,-136 2729.0803,-136 2858.4603,-136 2858.4603,-136 2858.4603,-136 2858.4603,-151.8495 2858.4603,-151.8495"/>
<polygon fill="#000000" stroke="#000000" points="2854.9604,-151.8494 2858.4603,-161.8495 2861.9604,-151.8495 2854.9604,-151.8494"/>
</g>
<!-- UserModule -->
<g id="node9" class="node">
<title>UserModule</title>
<polygon fill="#8dd3c7" stroke="#000000" points="2331.9762,-122 2328.9762,-126 2307.9762,-126 2304.9762,-122 2246.0238,-122 2246.0238,-86 2331.9762,-86 2331.9762,-122"/>
<text text-anchor="middle" x="2289" y="-99.8" font-family="Times,serif" font-size="14.00" fill="#000000">UserModule</text>
</g>
<!-- UserModule&#45;&gt;CoreModule -->
<g id="edge8" class="edge">
<title>UserModule&#45;&gt;CoreModule</title>
<path fill="none" stroke="#000000" d="M2307.5,-122.1871C2307.5,-137.1824 2307.5,-156 2307.5,-156 2307.5,-156 2815.0795,-156 2815.0795,-156 2815.0795,-156 2815.0795,-156.581 2815.0795,-156.581"/>
<polygon fill="#000000" stroke="#000000" points="2811.5797,-151.8097 2815.0795,-161.8097 2818.5797,-151.8098 2811.5797,-151.8097"/>
</g>
<!-- DashboardModule -->
<g id="node14" class="node">
<title>DashboardModule</title>
<polygon fill="#8dd3c7" stroke="#000000" points="1516.191,-263 1513.191,-267 1492.191,-267 1489.191,-263 1395.809,-263 1395.809,-227 1516.191,-227 1516.191,-263"/>
<text text-anchor="middle" x="1456" y="-240.8" font-family="Times,serif" font-size="14.00" fill="#000000">DashboardModule</text>
</g>
<!-- UserModule&#45;&gt;DashboardModule -->
<g id="edge16" class="edge">
<title>UserModule&#45;&gt;DashboardModule</title>
<path fill="none" stroke="#000000" d="M2245.8744,-104C2073.4389,-104 1442.8177,-104 1442.8177,-104 1442.8177,-104 1442.8177,-216.8554 1442.8177,-216.8554"/>
<polygon fill="#000000" stroke="#000000" points="1439.3177,-216.8553 1442.8177,-226.8554 1446.3177,-216.8554 1439.3177,-216.8553"/>
</g>
<!-- SharedModule -->
<g id="node17" class="node">
<title>SharedModule</title>
<polygon fill="#8dd3c7" stroke="#000000" points="1425.4231,-198 1422.4231,-202 1401.4231,-202 1398.4231,-198 1326.5769,-198 1326.5769,-162 1425.4231,-162 1425.4231,-198"/>
<text text-anchor="middle" x="1376" y="-175.8" font-family="Times,serif" font-size="14.00" fill="#000000">SharedModule</text>
</g>
<!-- UserModule&#45;&gt;SharedModule -->
<g id="edge40" class="edge">
<title>UserModule&#45;&gt;SharedModule</title>
<path fill="none" stroke="#000000" d="M2245.8677,-95C2071.8961,-95 1431.08,-95 1431.08,-95 1431.08,-95 1431.08,-180 1431.08,-180 1431.08,-180 1430.5317,-180 1430.5317,-180"/>
<polygon fill="#000000" stroke="#000000" points="1435.5974,-176.5002 1425.5973,-180 1435.5972,-183.5002 1435.5974,-176.5002"/>
</g>
<!-- LoginModule -->
<g id="node24" class="node">
<title>LoginModule</title>
<polygon fill="#8dd3c7" stroke="#000000" points="626.493,-263 623.493,-267 602.493,-267 599.493,-263 533.507,-263 533.507,-227 626.493,-227 626.493,-263"/>
<text text-anchor="middle" x="580" y="-240.8" font-family="Times,serif" font-size="14.00" fill="#000000">LoginModule</text>
</g>
<!-- UserModule&#45;&gt;LoginModule -->
<g id="edge26" class="edge">
<title>UserModule&#45;&gt;LoginModule</title>
<path fill="none" stroke="#000000" d="M2258.3452,-122.1686C2258.3452,-126.0459 2258.3452,-129 2258.3452,-129 2258.3452,-129 623.7936,-129 623.7936,-129 623.7936,-129 623.7936,-216.875 623.7936,-216.875"/>
<polygon fill="#000000" stroke="#000000" points="620.2937,-216.875 623.7936,-226.875 627.2937,-216.875 620.2937,-216.875"/>
</g>
<!-- RegisterModule -->
<g id="node35" class="node">
<title>RegisterModule</title>
<polygon fill="#8dd3c7" stroke="#000000" points="2172.2022,-263 2169.2022,-267 2148.2022,-267 2145.2022,-263 2065.7978,-263 2065.7978,-227 2172.2022,-227 2172.2022,-263"/>
<text text-anchor="middle" x="2119" y="-240.8" font-family="Times,serif" font-size="14.00" fill="#000000">RegisterModule</text>
</g>
<!-- UserModule&#45;&gt;RegisterModule -->
<g id="edge35" class="edge">
<title>UserModule&#45;&gt;RegisterModule</title>
<path fill="none" stroke="#000000" d="M2270.6786,-122.1446C2270.6786,-160.2265 2270.6786,-245 2270.6786,-245 2270.6786,-245 2182.4762,-245 2182.4762,-245"/>
<polygon fill="#000000" stroke="#000000" points="2182.4762,-241.5001 2172.4762,-245 2182.4762,-248.5001 2182.4762,-241.5001"/>
</g>
<!-- BuyerDashboardComponent -->
<g id="node12" class="node">
<title>BuyerDashboardComponent</title>
<polygon fill="#ffffb3" stroke="#000000" points="1817.1853,-198 1640.8147,-198 1640.8147,-162 1817.1853,-162 1817.1853,-198"/>
<text text-anchor="middle" x="1729" y="-175.8" font-family="Times,serif" font-size="14.00" fill="#000000">BuyerDashboardComponent</text>
</g>
<!-- BuyerDashboardComponent&#45;&gt;DashboardModule -->
<g id="edge11" class="edge">
<title>BuyerDashboardComponent&#45;&gt;DashboardModule</title>
<path fill="none" stroke="#000000" d="M1729,-198.0225C1729,-215.3734 1729,-239 1729,-239 1729,-239 1526.249,-239 1526.249,-239"/>
<polygon fill="#000000" stroke="#000000" points="1526.249,-235.5001 1516.249,-239 1526.2489,-242.5001 1526.249,-235.5001"/>
</g>
<!-- SellerDashboardComponent -->
<g id="node13" class="node">
<title>SellerDashboardComponent</title>
<polygon fill="#ffffb3" stroke="#000000" points="1623.1274,-198 1448.8726,-198 1448.8726,-162 1623.1274,-162 1623.1274,-198"/>
<text text-anchor="middle" x="1536" y="-175.8" font-family="Times,serif" font-size="14.00" fill="#000000">SellerDashboardComponent</text>
</g>
<!-- SellerDashboardComponent&#45;&gt;DashboardModule -->
<g id="edge12" class="edge">
<title>SellerDashboardComponent&#45;&gt;DashboardModule</title>
<path fill="none" stroke="#000000" d="M1482.391,-198.1061C1482.391,-198.1061 1482.391,-216.991 1482.391,-216.991"/>
<polygon fill="#000000" stroke="#000000" points="1478.891,-216.9909 1482.391,-226.991 1485.891,-216.991 1478.891,-216.9909"/>
</g>
<!-- DashboardRoutingModule -->
<g id="node15" class="node">
<title>DashboardRoutingModule</title>
<polygon fill="#8dd3c7" stroke="#000000" points="1424.8089,-122 1421.8089,-126 1400.8089,-126 1397.8089,-122 1259.1911,-122 1259.1911,-86 1424.8089,-86 1424.8089,-122"/>
<text text-anchor="middle" x="1342" y="-99.8" font-family="Times,serif" font-size="14.00" fill="#000000">DashboardRoutingModule</text>
</g>
<!-- DashboardRoutingModule&#45;&gt;DashboardModule -->
<g id="edge13" class="edge">
<title>DashboardRoutingModule&#45;&gt;DashboardModule</title>
<path fill="none" stroke="#000000" d="M1424.9235,-113C1432.2416,-113 1436.9488,-113 1436.9488,-113 1436.9488,-113 1436.9488,-216.9227 1436.9488,-216.9227"/>
<polygon fill="#000000" stroke="#000000" points="1433.4489,-216.9227 1436.9488,-226.9227 1440.4489,-216.9228 1433.4489,-216.9227"/>
</g>
<!-- DynamicFormModule -->
<g id="node16" class="node">
<title>DynamicFormModule</title>
<polygon fill="#8dd3c7" stroke="#000000" points="1241.7007,-122 1238.7007,-126 1217.7007,-126 1214.7007,-122 1100.2993,-122 1100.2993,-86 1241.7007,-86 1241.7007,-122"/>
<text text-anchor="middle" x="1171" y="-99.8" font-family="Times,serif" font-size="14.00" fill="#000000">DynamicFormModule</text>
</g>
<!-- DynamicFormModule&#45;&gt;DashboardModule -->
<g id="edge14" class="edge">
<title>DynamicFormModule&#45;&gt;DashboardModule</title>
<path fill="none" stroke="#000000" d="M1156.8799,-122.2067C1156.8799,-159.0559 1156.8799,-239 1156.8799,-239 1156.8799,-239 1385.8284,-239 1385.8284,-239"/>
<polygon fill="#000000" stroke="#000000" points="1385.8284,-242.5001 1395.8284,-239 1385.8284,-235.5001 1385.8284,-242.5001"/>
</g>
<!-- DynamicFormModule&#45;&gt;SharedModule -->
<g id="edge39" class="edge">
<title>DynamicFormModule&#45;&gt;SharedModule</title>
<path fill="none" stroke="#000000" d="M1213.3602,-122.1985C1213.3602,-146.3563 1213.3602,-186 1213.3602,-186 1213.3602,-186 1316.7613,-186 1316.7613,-186"/>
<polygon fill="#000000" stroke="#000000" points="1316.7614,-189.5001 1326.7613,-186 1316.7613,-182.5001 1316.7614,-189.5001"/>
</g>
<!-- DynamicFormComponent  -->
<g id="node19" class="node">
<title>DynamicFormComponent </title>
<polygon fill="#fb8072" stroke="#000000" points="846.4839,-198 679.5161,-198 679.5161,-162 846.4839,-162 846.4839,-198"/>
<text text-anchor="middle" x="763" y="-175.8" font-family="Times,serif" font-size="14.00" fill="#000000">DynamicFormComponent </text>
</g>
<!-- DynamicFormModule&#45;&gt;DynamicFormComponent  -->
<g id="edge18" class="edge">
<title>DynamicFormModule&#45;&gt;DynamicFormComponent </title>
<path fill="none" stroke="#000000" stroke-dasharray="5,2" d="M1100.3976,-110C983.6227,-110 763,-110 763,-110 763,-110 763,-151.9733 763,-151.9733"/>
<polygon fill="#000000" stroke="#000000" points="759.5001,-151.9732 763,-161.9733 766.5001,-151.9733 759.5001,-151.9732"/>
</g>
<!-- DynamicFormModule&#45;&gt;LoginModule -->
<g id="edge23" class="edge">
<title>DynamicFormModule&#45;&gt;LoginModule</title>
<path fill="none" stroke="#000000" d="M1100.2348,-98C951.713,-98 621.0907,-98 621.0907,-98 621.0907,-98 621.0907,-216.9749 621.0907,-216.9749"/>
<polygon fill="#000000" stroke="#000000" points="617.5908,-216.9749 621.0907,-226.9749 624.5908,-216.9749 617.5908,-216.9749"/>
</g>
<!-- DynamicFormModule&#45;&gt;RegisterModule -->
<g id="edge32" class="edge">
<title>DynamicFormModule&#45;&gt;RegisterModule</title>
<path fill="none" stroke="#000000" d="M1185.1201,-122.1789C1185.1201,-155.2788 1185.1201,-222 1185.1201,-222 1185.1201,-222 2092.4495,-222 2092.4495,-222 2092.4495,-222 2092.4495,-222.4878 2092.4495,-222.4878"/>
<polygon fill="#000000" stroke="#000000" points="2088.9497,-216.8776 2092.4495,-226.8777 2095.9497,-216.8778 2088.9497,-216.8776"/>
</g>
<!-- SharedModule&#45;&gt;DashboardModule -->
<g id="edge15" class="edge">
<title>SharedModule&#45;&gt;DashboardModule</title>
<path fill="none" stroke="#000000" d="M1403.2312,-198.1061C1403.2312,-198.1061 1403.2312,-216.991 1403.2312,-216.991"/>
<polygon fill="#000000" stroke="#000000" points="1399.7313,-216.9909 1403.2312,-226.991 1406.7313,-216.991 1399.7313,-216.9909"/>
</g>
<!-- HomeModule -->
<g id="node21" class="node">
<title>HomeModule</title>
<polygon fill="#8dd3c7" stroke="#000000" points="290.7619,-263 287.7619,-267 266.7619,-267 263.7619,-263 197.2381,-263 197.2381,-227 290.7619,-227 290.7619,-263"/>
<text text-anchor="middle" x="244" y="-240.8" font-family="Times,serif" font-size="14.00" fill="#000000">HomeModule</text>
</g>
<!-- SharedModule&#45;&gt;HomeModule -->
<g id="edge21" class="edge">
<title>SharedModule&#45;&gt;HomeModule</title>
<path fill="none" stroke="#000000" d="M1349.8275,-198.1903C1349.8275,-201.5376 1349.8275,-204 1349.8275,-204 1349.8275,-204 259.6269,-204 259.6269,-204 259.6269,-204 259.6269,-216.8975 259.6269,-216.8975"/>
<polygon fill="#000000" stroke="#000000" points="256.127,-216.8974 259.6269,-226.8975 263.127,-216.8975 256.127,-216.8974"/>
</g>
<!-- SharedModule&#45;&gt;LoginModule -->
<g id="edge25" class="edge">
<title>SharedModule&#45;&gt;LoginModule</title>
<path fill="none" stroke="#000000" d="M1372.866,-198.2843C1372.866,-219.3211 1372.866,-251 1372.866,-251 1372.866,-251 636.6373,-251 636.6373,-251"/>
<polygon fill="#000000" stroke="#000000" points="636.6374,-247.5001 626.6373,-251 636.6373,-254.5001 636.6374,-247.5001"/>
</g>
<!-- SharedModule&#45;&gt;RegisterModule -->
<g id="edge34" class="edge">
<title>SharedModule&#45;&gt;RegisterModule</title>
<path fill="none" stroke="#000000" d="M1410.5579,-198.4218C1410.5579,-207.2791 1410.5579,-216 1410.5579,-216 1410.5579,-216 2119,-216 2119,-216 2119,-216 2119,-217.0799 2119,-217.0799"/>
<polygon fill="#000000" stroke="#000000" points="2115.5001,-216.7985 2119,-226.7985 2122.5001,-216.7986 2115.5001,-216.7985"/>
</g>
<!-- SearchResultsModule -->
<g id="node38" class="node">
<title>SearchResultsModule</title>
<polygon fill="#8dd3c7" stroke="#000000" points="2444.3585,-263 2441.3585,-267 2420.3585,-267 2417.3585,-263 2305.6415,-263 2305.6415,-227 2444.3585,-227 2444.3585,-263"/>
<text text-anchor="middle" x="2375" y="-240.8" font-family="Times,serif" font-size="14.00" fill="#000000">SearchResultsModule</text>
</g>
<!-- SharedModule&#45;&gt;SearchResultsModule -->
<g id="edge38" class="edge">
<title>SharedModule&#45;&gt;SearchResultsModule</title>
<path fill="none" stroke="#000000" d="M1417.8845,-198.1432C1417.8845,-204.4611 1417.8845,-210 1417.8845,-210 1417.8845,-210 2351.8569,-210 2351.8569,-210 2351.8569,-210 2351.8569,-216.68 2351.8569,-216.68"/>
<polygon fill="#000000" stroke="#000000" points="2348.357,-216.6799 2351.8569,-226.68 2355.357,-216.68 2348.357,-216.6799"/>
</g>
<!-- DynamicFormComponent -->
<g id="node18" class="node">
<title>DynamicFormComponent</title>
<polygon fill="#ffffb3" stroke="#000000" points="1032.4832,-198 869.5168,-198 869.5168,-162 1032.4832,-162 1032.4832,-198"/>
<text text-anchor="middle" x="951" y="-175.8" font-family="Times,serif" font-size="14.00" fill="#000000">DynamicFormComponent</text>
</g>
<!-- DynamicFormComponent&#45;&gt;DynamicFormModule -->
<g id="edge17" class="edge">
<title>DynamicFormComponent&#45;&gt;DynamicFormModule</title>
<path fill="none" stroke="#000000" d="M1032.5412,-174C1079.2397,-174 1128.6398,-174 1128.6398,-174 1128.6398,-174 1128.6398,-132.0267 1128.6398,-132.0267"/>
<polygon fill="#000000" stroke="#000000" points="1132.1399,-132.0267 1128.6398,-122.0267 1125.1399,-132.0268 1132.1399,-132.0267"/>
</g>
<!-- HomeComponent -->
<g id="node20" class="node">
<title>HomeComponent</title>
<polygon fill="#ffffb3" stroke="#000000" points="301.5451,-198 186.4549,-198 186.4549,-162 301.5451,-162 301.5451,-198"/>
<text text-anchor="middle" x="244" y="-175.8" font-family="Times,serif" font-size="14.00" fill="#000000">HomeComponent</text>
</g>
<!-- HomeComponent&#45;&gt;HomeModule -->
<g id="edge19" class="edge">
<title>HomeComponent&#45;&gt;HomeModule</title>
<path fill="none" stroke="#000000" d="M228.3731,-198.1061C228.3731,-198.1061 228.3731,-216.991 228.3731,-216.991"/>
<polygon fill="#000000" stroke="#000000" points="224.8732,-216.9909 228.3731,-226.991 231.8732,-216.991 224.8732,-216.9909"/>
</g>
<!-- HomeRoutingModule -->
<g id="node22" class="node">
<title>HomeRoutingModule</title>
<polygon fill="#8dd3c7" stroke="#000000" points="162.3795,-198 159.3795,-202 138.3795,-202 135.3795,-198 23.6205,-198 23.6205,-162 162.3795,-162 162.3795,-198"/>
<text text-anchor="middle" x="93" y="-175.8" font-family="Times,serif" font-size="14.00" fill="#000000">HomeRoutingModule</text>
</g>
<!-- HomeRoutingModule&#45;&gt;HomeModule -->
<g id="edge20" class="edge">
<title>HomeRoutingModule&#45;&gt;HomeModule</title>
<path fill="none" stroke="#000000" d="M93,-198.1061C93,-217.3391 93,-245 93,-245 93,-245 187.0504,-245 187.0504,-245"/>
<polygon fill="#000000" stroke="#000000" points="187.0504,-248.5001 197.0504,-245 187.0503,-241.5001 187.0504,-248.5001"/>
</g>
<!-- LoginComponent -->
<g id="node23" class="node">
<title>LoginComponent</title>
<polygon fill="#ffffb3" stroke="#000000" points="618.2758,-198 503.7242,-198 503.7242,-162 618.2758,-162 618.2758,-198"/>
<text text-anchor="middle" x="561" y="-175.8" font-family="Times,serif" font-size="14.00" fill="#000000">LoginComponent</text>
</g>
<!-- LoginComponent&#45;&gt;LoginModule -->
<g id="edge22" class="edge">
<title>LoginComponent&#45;&gt;LoginModule</title>
<path fill="none" stroke="#000000" d="M575.9457,-198.1061C575.9457,-198.1061 575.9457,-216.991 575.9457,-216.991"/>
<polygon fill="#000000" stroke="#000000" points="572.4457,-216.9909 575.9457,-226.991 579.4457,-216.991 572.4457,-216.9909"/>
</g>
<!-- LoginRoutingModule -->
<g id="node25" class="node">
<title>LoginRoutingModule</title>
<polygon fill="#8dd3c7" stroke="#000000" points="480.1108,-198 477.1108,-202 456.1108,-202 453.1108,-198 341.8892,-198 341.8892,-162 480.1108,-162 480.1108,-198"/>
<text text-anchor="middle" x="411" y="-175.8" font-family="Times,serif" font-size="14.00" fill="#000000">LoginRoutingModule</text>
</g>
<!-- LoginRoutingModule&#45;&gt;LoginModule -->
<g id="edge24" class="edge">
<title>LoginRoutingModule&#45;&gt;LoginModule</title>
<path fill="none" stroke="#000000" d="M411,-198.1061C411,-217.3391 411,-245 411,-245 411,-245 523.3726,-245 523.3726,-245"/>
<polygon fill="#000000" stroke="#000000" points="523.3727,-248.5001 533.3726,-245 523.3726,-241.5001 523.3727,-248.5001"/>
</g>
<!-- OrderFailedRoutingModule -->
<g id="node26" class="node">
<title>OrderFailedRoutingModule</title>
<polygon fill="#8dd3c7" stroke="#000000" points="3376.3033,-122 3373.3033,-126 3352.3033,-126 3349.3033,-122 3203.6967,-122 3203.6967,-86 3376.3033,-86 3376.3033,-122"/>
<text text-anchor="middle" x="3290" y="-99.8" font-family="Times,serif" font-size="14.00" fill="#000000">OrderFailedRoutingModule</text>
</g>
<!-- OrderFailedModule -->
<g id="node27" class="node">
<title>OrderFailedModule</title>
<polygon fill="#8dd3c7" stroke="#000000" points="3353.6853,-198 3350.6853,-202 3329.6853,-202 3326.6853,-198 3226.3147,-198 3226.3147,-162 3353.6853,-162 3353.6853,-198"/>
<text text-anchor="middle" x="3290" y="-175.8" font-family="Times,serif" font-size="14.00" fill="#000000">OrderFailedModule</text>
</g>
<!-- OrderFailedRoutingModule&#45;&gt;OrderFailedModule -->
<g id="edge27" class="edge">
<title>OrderFailedRoutingModule&#45;&gt;OrderFailedModule</title>
<path fill="none" stroke="#000000" d="M3290,-122.0109C3290,-122.0109 3290,-151.855 3290,-151.855"/>
<polygon fill="#000000" stroke="#000000" points="3286.5001,-151.8549 3290,-161.855 3293.5001,-151.855 3286.5001,-151.8549"/>
</g>
<!-- OrderRoutingModule -->
<g id="node28" class="node">
<title>OrderRoutingModule</title>
<polygon fill="#8dd3c7" stroke="#000000" points="3553.8104,-122 3550.8104,-126 3529.8104,-126 3526.8104,-122 3416.1896,-122 3416.1896,-86 3553.8104,-86 3553.8104,-122"/>
<text text-anchor="middle" x="3485" y="-99.8" font-family="Times,serif" font-size="14.00" fill="#000000">OrderRoutingModule</text>
</g>
<!-- OrderModule -->
<g id="node29" class="node">
<title>OrderModule</title>
<polygon fill="#8dd3c7" stroke="#000000" points="3531.1924,-198 3528.1924,-202 3507.1924,-202 3504.1924,-198 3438.8076,-198 3438.8076,-162 3531.1924,-162 3531.1924,-198"/>
<text text-anchor="middle" x="3485" y="-175.8" font-family="Times,serif" font-size="14.00" fill="#000000">OrderModule</text>
</g>
<!-- OrderRoutingModule&#45;&gt;OrderModule -->
<g id="edge28" class="edge">
<title>OrderRoutingModule&#45;&gt;OrderModule</title>
<path fill="none" stroke="#000000" d="M3485,-122.0109C3485,-122.0109 3485,-151.855 3485,-151.855"/>
<polygon fill="#000000" stroke="#000000" points="3481.5001,-151.8549 3485,-161.855 3488.5001,-151.855 3481.5001,-151.8549"/>
</g>
<!-- OrderSuccessRoutingModule -->
<g id="node30" class="node">
<title>OrderSuccessRoutingModule</title>
<polygon fill="#8dd3c7" stroke="#000000" points="3775.626,-122 3772.626,-126 3751.626,-126 3748.626,-122 3594.374,-122 3594.374,-86 3775.626,-86 3775.626,-122"/>
<text text-anchor="middle" x="3685" y="-99.8" font-family="Times,serif" font-size="14.00" fill="#000000">OrderSuccessRoutingModule</text>
</g>
<!-- OrderSuccessModule -->
<g id="node31" class="node">
<title>OrderSuccessModule</title>
<polygon fill="#8dd3c7" stroke="#000000" points="3753.0087,-198 3750.0087,-202 3729.0087,-202 3726.0087,-198 3616.9913,-198 3616.9913,-162 3753.0087,-162 3753.0087,-198"/>
<text text-anchor="middle" x="3685" y="-175.8" font-family="Times,serif" font-size="14.00" fill="#000000">OrderSuccessModule</text>
</g>
<!-- OrderSuccessRoutingModule&#45;&gt;OrderSuccessModule -->
<g id="edge29" class="edge">
<title>OrderSuccessRoutingModule&#45;&gt;OrderSuccessModule</title>
<path fill="none" stroke="#000000" d="M3685,-122.0109C3685,-122.0109 3685,-151.855 3685,-151.855"/>
<polygon fill="#000000" stroke="#000000" points="3681.5001,-151.8549 3685,-161.855 3688.5001,-151.855 3681.5001,-151.8549"/>
</g>
<!-- PrinterRoutingModule -->
<g id="node32" class="node">
<title>PrinterRoutingModule</title>
<polygon fill="#8dd3c7" stroke="#000000" points="3958.2674,-122 3955.2674,-126 3934.2674,-126 3931.2674,-122 3815.7326,-122 3815.7326,-86 3958.2674,-86 3958.2674,-122"/>
<text text-anchor="middle" x="3887" y="-99.8" font-family="Times,serif" font-size="14.00" fill="#000000">PrinterRoutingModule</text>
</g>
<!-- PrinterModule -->
<g id="node33" class="node">
<title>PrinterModule</title>
<polygon fill="#8dd3c7" stroke="#000000" points="3935.65,-198 3932.65,-202 3911.65,-202 3908.65,-198 3838.35,-198 3838.35,-162 3935.65,-162 3935.65,-198"/>
<text text-anchor="middle" x="3887" y="-175.8" font-family="Times,serif" font-size="14.00" fill="#000000">PrinterModule</text>
</g>
<!-- PrinterRoutingModule&#45;&gt;PrinterModule -->
<g id="edge30" class="edge">
<title>PrinterRoutingModule&#45;&gt;PrinterModule</title>
<path fill="none" stroke="#000000" d="M3887,-122.0109C3887,-122.0109 3887,-151.855 3887,-151.855"/>
<polygon fill="#000000" stroke="#000000" points="3883.5001,-151.8549 3887,-161.855 3890.5001,-151.855 3883.5001,-151.8549"/>
</g>
<!-- RegisterComponent -->
<g id="node34" class="node">
<title>RegisterComponent</title>
<polygon fill="#ffffb3" stroke="#000000" points="2182.9846,-198 2055.0154,-198 2055.0154,-162 2182.9846,-162 2182.9846,-198"/>
<text text-anchor="middle" x="2119" y="-175.8" font-family="Times,serif" font-size="14.00" fill="#000000">RegisterComponent</text>
</g>
<!-- RegisterComponent&#45;&gt;RegisterModule -->
<g id="edge31" class="edge">
<title>RegisterComponent&#45;&gt;RegisterModule</title>
<path fill="none" stroke="#000000" d="M2145.5505,-198.1061C2145.5505,-198.1061 2145.5505,-216.991 2145.5505,-216.991"/>
<polygon fill="#000000" stroke="#000000" points="2142.0506,-216.9909 2145.5505,-226.991 2149.0506,-216.991 2142.0506,-216.9909"/>
</g>
<!-- RegisterRoutingModule -->
<g id="node36" class="node">
<title>RegisterRoutingModule</title>
<polygon fill="#8dd3c7" stroke="#000000" points="2030.8201,-198 2027.8201,-202 2006.8201,-202 2003.8201,-198 1879.1799,-198 1879.1799,-162 2030.8201,-162 2030.8201,-198"/>
<text text-anchor="middle" x="1955" y="-175.8" font-family="Times,serif" font-size="14.00" fill="#000000">RegisterRoutingModule</text>
</g>
<!-- RegisterRoutingModule&#45;&gt;RegisterModule -->
<g id="edge33" class="edge">
<title>RegisterRoutingModule&#45;&gt;RegisterModule</title>
<path fill="none" stroke="#000000" d="M1955,-198.2843C1955,-219.3211 1955,-251 1955,-251 1955,-251 2055.7539,-251 2055.7539,-251"/>
<polygon fill="#000000" stroke="#000000" points="2055.7539,-254.5001 2065.7539,-251 2055.7539,-247.5001 2055.7539,-254.5001"/>
</g>
<!-- SearchResultsComponent -->
<g id="node37" class="node">
<title>SearchResultsComponent</title>
<polygon fill="#ffffb3" stroke="#000000" points="2651.1414,-198 2490.8586,-198 2490.8586,-162 2651.1414,-162 2651.1414,-198"/>
<text text-anchor="middle" x="2571" y="-175.8" font-family="Times,serif" font-size="14.00" fill="#000000">SearchResultsComponent</text>
</g>
<!-- SearchResultsComponent&#45;&gt;SearchResultsModule -->
<g id="edge36" class="edge">
<title>SearchResultsComponent&#45;&gt;SearchResultsModule</title>
<path fill="none" stroke="#000000" d="M2571,-198.0225C2571,-215.3734 2571,-239 2571,-239 2571,-239 2454.3781,-239 2454.3781,-239"/>
<polygon fill="#000000" stroke="#000000" points="2454.3781,-235.5001 2444.3781,-239 2454.3781,-242.5001 2454.3781,-235.5001"/>
</g>
<!-- SearchResultsRoutingModule -->
<g id="node39" class="node">
<title>SearchResultsRoutingModule</title>
<polygon fill="#8dd3c7" stroke="#000000" points="2466.9762,-198 2463.9762,-202 2442.9762,-202 2439.9762,-198 2283.0238,-198 2283.0238,-162 2466.9762,-162 2466.9762,-198"/>
<text text-anchor="middle" x="2375" y="-175.8" font-family="Times,serif" font-size="14.00" fill="#000000">SearchResultsRoutingModule</text>
</g>
<!-- SearchResultsRoutingModule&#45;&gt;SearchResultsModule -->
<g id="edge37" class="edge">
<title>SearchResultsRoutingModule&#45;&gt;SearchResultsModule</title>
<path fill="none" stroke="#000000" d="M2398.1431,-198.1061C2398.1431,-198.1061 2398.1431,-216.991 2398.1431,-216.991"/>
<polygon fill="#000000" stroke="#000000" points="2394.6432,-216.9909 2398.1431,-226.991 2401.6432,-216.991 2394.6432,-216.9909"/>
</g>
</g>
</svg>
